<svg xmlns="http://www.w3.org/2000/svg" viewBox="0 0 1331 1331">
  <circle cx="665.5" cy="665.5" r="665.5" fill="#FCA311" />
  <g fill="#091433">
    <rect x="114.4" y="636.5" width="46.3" height="153.0" rx="14.5" />
    <rect x="189.7" y="636.5" width="46.3" height="153.0" rx="14.5" />
    <rect x="265.0" y="636.5" width="46.3" height="153.0" rx="14.5" />
    <rect x="340.3" y="636.5" width="46.3" height="153.0" rx="14.5" />
    <rect x="415.5" y="598.2" width="46.3" height="191.2" rx="14.5" />
    <rect x="490.8" y="636.5" width="46.3" height="153.0" rx="14.5" />
    <rect x="566.1" y="636.5" width="46.3" height="153.0" rx="14.5" />
    <rect x="641.4" y="542.5" width="46.3" height="246.9" rx="14.5" />
    <rect x="716.7" y="636.5" width="46.3" height="153.0" rx="14.5" />
    <rect x="791.9" y="636.5" width="46.3" height="153.0" rx="14.5" />
    <rect x="867.2" y="598.2" width="46.3" height="191.2" rx="14.5" />
    <rect x="942.5" y="636.5" width="46.3" height="153.0" rx="14.5" />
    <rect x="1017.8" y="636.5" width="46.3" height="153.0" rx="14.5" />
    <rect x="1093.1" y="636.5" width="46.3" height="153.0" rx="14.5" />
    <rect x="1168.4" y="636.5" width="46.3" height="153.0" rx="14.5" />
  </g>
</svg>
