<svg xmlns="http://www.w3.org/2000/svg" width="200" height="200" fill="none" viewBox="0 0 200 200">
<!-- SVG created with Arrow, by QuiverAI (https://quiver.ai) -->
  <path d="m162.7 127.9c-0.73 8.61-4.02 19.27-9.25 28.1 4.12-8.82 5.7-18.77 3.76-29.74-2.37-12.85-6.2-16.42-9.48-27.5-4.43-14.73-2.52-25.99 5.91-39.49-12.9 4.68-26.56 15.19-24.93 43.42 0.39 6.72 1.85 15.52-6.5 17.13-6.47 1.25-12.51-6.66-7.97-19.77 3.84-11.15 11.06-22.97 12.09-35.93 2.03-27.02-15.23-49.22-38.6-59.13 10.36 13.78 12.23 31.04 7 45.47-6.19 17.14-17.6 22.89-25.95 38.6-5.88 10.92-6.83 19-6.19 29.26-6.6-9.96-6.46-20.34-2.25-33.4-12.34 11.93-21.04 30.88-19.15 49.67 0.27 2.81 0.14 4.58-0.66 4.88-1.56-1.82-3.09-7.35-3.51-11.59-0.68 30.07 18.48 59.87 56.02 67.02-18.16-7.1-21.04-27.79-15.88-47 0.12 7.38 2.27 19.91 11.14 19.73 4.53-0.09 6.43-5.52 3.64-11.56-2.04-4.6-5.5-9.89-6.3-18.46-1.01-11.45 3.5-20.71 9.23-28.48-2.37 7.77-3.78 17.07 0.33 26.14 4.86 10.77 11.75 14.43 15.54 24.38 2.49 6.63 0.19 14.61-4.4 19.13 10.79-1.82 17.43-12.61 18.4-23.71 5.34 11.78-0.19 30.63-16.91 39.55 31.11-4.65 55.87-29.57 54.87-66.72z" fill="url(#paint0_linear_1_122)"/>
  <path d="m145.3 164.9c9.1-11.97 13.14-28.02 11.71-43.11 1.68 6.29 1.79 26.15-11.71 43.11z" fill="url(#paint1_linear_1_122)"/>
  <path d="m38.44 134.1c1.38 11.53 7.05 22.84 15.44 30.8-6.66-6.93-12.03-17.74-15.44-30.8z" fill="url(#paint2_linear_1_122)"/>
  <path d="m138.8 80.7c-3.79 7.11-4.43 13.56-2.2 22.76 2.37 9.82 2.32 19.27-4.7 28.62l2.23-15.92c-2.23 10.06-6.77 18.29-16.63 18.65-9.73 0.36-13.52-8.03-15.76-16.42-2.81-10.96 3.16-23.18 4.57-32.32 0.85-5.56-0.4-11.45-1.89-16.45-0.71 10.14-7.73 17.8-19.45 29.49-12 12.06-18.14 26.67-15.9 47.2-7.02-2.96-12.02-10.94-14.39-21.54-5.53 24.51 1.27 45.46 19.56 60.44 4.24 3.52 8.77 6.47 13.56 8.7-14.55-4.69-31.02-13.2-40.88-30.1 3.48 5.57 7.46 8.1 7.46 8.1-9.1-9.07-13.96-22.63-13.32-37.8-0.85 6.3 0.13 7.01 0.13 7.01-2.79-4.83-2.31-13-0.71-20.42 3.39-15.34 12.12-27.59 19.5-35.57-4.72 10.06-4.85 21.51 2.17 33.2-2.04-14.52 4-29.62 15.28-43.21 8.87-10.7 18.25-21.21 20.05-37.04 1.42-12.85-2.52-24.77-9.78-33.08 13.5 6.04 29.4 18.1 35.97 36.12 4.18 11.66 3.63 24.99-0.55 36.64-5.41 15.1-10.94 21.4-10.43 31.46 0.42 7.11 5.76 11.69 10.72 10.39 5.4-1.45 6.49-7.49 5.4-15.15-2.51-18.3 3.29-34.01 24.59-45.18-7.26 8.8-8.75 19.23-5.46 31.63 3.86 14.16 10.19 21.21 9.77 36.49-0.43 12.51-5.77 29.02-12.47 37.41 4.86-9.7 6.96-20.76 3.81-32.73-1.6-6.3-3.02-9.96-6.04-12.92-0.64 10.52-5.18 20.75-12.96 32 4.96-2.05 9.65-9.55 11.75-15.25 3.15 16.27-2.89 37.4-18.79 50.95-5.3 4.52-10.06 6.2-15.21 7.65 10.39-4.45 21.01-17.5 16.9-39.43l-0.58-0.5c-0.85 11.33-7.67 22.12-17.92 24.04 5.6-5.34 6.45-14.96 1.01-24.78-4.31-7.57-11.6-13-13.97-24.45-1.74-8.31 0.36-16.28 1.6-20.38-7.92 8.54-11.71 21.9-7.74 35.2 2.1 6.98 5.12 11.14 5.97 14.9 1.14 5.2-1.88 9-6.15 8.51-7.26-0.85-9.16-11.14-9.67-19.91-7.16 17.07-0.2 39.51 15.96 47.17-23.09-3.87-47.93-22.2-55.09-48.66-1.67-6.34-1.3-15.51-1.07-18.1 0.58 5.66 1.83 9 3.53 11.59-0.85-10.95-0.48-21.46 6.22-35.02 2.79-5.67 7.1-12.43 13.21-19.67-4.96 10.69-4.82 21.94 2.34 33.29-1.42-11.15 1.97-24.86 12.73-39.2 7.62-10.32 17.36-18.96 21.12-32.17 4.54-15.6 0.88-30.58-8.5-41.94 14.01 6.04 28.56 18.1 35.31 36.12 4.86 13.19 4.01 27.62-1.61 40.98-5.14 12.51-9.19 18.72-8.82 26.61 0.37 7.31 5.6 12.08 10.56 10.73 4.76-1.33 6.25-6.42 5.16-14.63-2.15-16.68 1.72-31.66 16.88-41.48-7.26 8.8-9.16 14.84-5.37 29.53 3.79 14.45 10.81 21.4 8.77 38.05-0.37 2.96-0.74 5.78-1.58 8.01 0.27-5.93-2.22-15.88-4.39-20.21-2.37 4.24-1.6 13.2-12.59 32.31 7.16-5.55 9.53-13.1 11.66-15.71 1.33 13.77-0.91 24.57-6.35 34.04 8.07-12.51 9.77-18.81 10.62-20.44l-0.63 16.03z" fill="url(#paint3_linear_1_122)"/>
  <path d="m105.3 26.21c14.18 17.85 14.18 36.98 3.71 60 3.99-11.29 4.84-26.15-0.39-33.49-4.21 15.19-11.99 22.3-19.48 30.54-5.94 6.45-11.74 10.45-13.91 20.06 1.28-10.13 7.87-21.19 17.47-32.11 10.11-11.6 15.34-25.59 12.6-45z" fill="url(#paint4_linear_1_122)"/>
  <path d="m127.7 30.02c9.35 6.3 12.5 14.39 11.01 23.08-0.98 5.56-3.64 7.96-5.77 11.51 2.95-10.96 1.86-24.7-5.24-34.59z" fill="url(#paint5_linear_1_122)"/>
  <path d="m82.28 13.51c8.35 10.4 9.76 20.6 5.97 31.56-2.59 7.54-5.88 11.64-10.19 16.23 4.54-6.04 4.68-12.23 2.65-20.88-0.98-4.41 4.25-12.39 1.57-26.91z" fill="url(#paint6_linear_1_122)"/>
  <path d="m68.1 46.52c2.82 9.61 1.97 18.69-8.05 28.24-7.26 5.29-12.35 10.95-15.44 20.02 0-7.66 4.05-15.9 12.18-24.55 6.93-7.32 10.97-13.61 11.31-23.71z" fill="url(#paint7_linear_1_122)"/>
  <defs>
    <linearGradient id="paint0_linear_1_122" x1="100" x2="100" y1="5" y2="194.9" gradientUnits="userSpaceOnUse">
      <stop stop-color="#FED131" offset="0"/>
      <stop stop-color="#F48820" offset=".5104"/>
      <stop stop-color="#C52534" offset="1"/>
    </linearGradient>
    <linearGradient id="paint1_linear_1_122" x1="152.3" x2="152.3" y1="121.8" y2="164.9" gradientUnits="userSpaceOnUse">
      <stop stop-color="#FED131" offset="0"/>
      <stop stop-color="#C52534" offset="1"/>
    </linearGradient>
    <linearGradient id="paint2_linear_1_122" x1="46.16" x2="46.16" y1="134.1" y2="164.9" gradientUnits="userSpaceOnUse">
      <stop stop-color="#FED131" offset="0"/>
      <stop stop-color="#C52534" offset="1"/>
    </linearGradient>
    <linearGradient id="paint3_linear_1_122" x1="97.65" x2="97.65" y1="5" y2="194.9" gradientUnits="userSpaceOnUse">
      <stop stop-color="#FED131" offset="0"/>
      <stop stop-color="#F48820" offset=".5104"/>
      <stop stop-color="#C52534" offset="1"/>
    </linearGradient>
    <linearGradient id="paint4_linear_1_122" x1="97.17" x2="97.17" y1="26.21" y2="103.3" gradientUnits="userSpaceOnUse">
      <stop stop-color="#FED131" offset="0"/>
      <stop stop-color="#F48820" offset="1"/>
    </linearGradient>
    <linearGradient id="paint5_linear_1_122" x1="133.8" x2="133.8" y1="30.02" y2="64.61" gradientUnits="userSpaceOnUse">
      <stop stop-color="#FED131" offset="0"/>
      <stop stop-color="#F48820" offset=".5104"/>
      <stop stop-color="#C52534" offset="1"/>
    </linearGradient>
    <linearGradient id="paint6_linear_1_122" x1="84.73" x2="84.73" y1="13.51" y2="61.3" gradientUnits="userSpaceOnUse">
      <stop stop-color="#FED131" offset="0"/>
      <stop stop-color="#F48820" offset=".5104"/>
      <stop stop-color="#C52534" offset="1"/>
    </linearGradient>
    <linearGradient id="paint7_linear_1_122" x1="56.36" x2="56.36" y1="46.52" y2="94.78" gradientUnits="userSpaceOnUse">
      <stop stop-color="#FED131" offset="0"/>
      <stop stop-color="#F48820" offset=".5104"/>
      <stop stop-color="#C52534" offset="1"/>
    </linearGradient>
  </defs>
</svg>
